PathFileType	4	(X/Y/Z)	Walk6.trc
DataRate	CameraRate	NumFrames	NumMarkers	Units	OrigDataRate	OrigDataStartFrame	OrigNumFrames
200.000000	200.000000	8	58	mm	200.000000	298	597
Frame#	Times		LBHD		LACR1		RMT5		LElbowM		RTH2		RTB3		LWRU		RToe		RTB2		RMT1		C7		LCAR		RCAL		RCAR		LASI		RFA1		RLFC		RWRU		LLFC		LTH3		LTH4		RElbow		RElbowM		LPSI		LTH2		RPSI		LTB2		RASI		LCAL		LMMAL		LFHD		T10		LMT5		LToe		RBHD		LUA1		LMT1		RTH3		RLMAL		RBack		RMFC		LTB1		LTB3		LTH1		LMFC		RFHD		RTB1		LTB4		RUA1		RTH1		RTH4		RTB4		LLMAL		RWRR		LWRR		RACR1		LElbow		RMMAL
			X1	Y1	Z1	X2	Y2	Z2	X3	Y3	Z3	X4	Y4	Z4	X5	Y5	Z5	X6	Y6	Z6	X7	Y7	Z7	X8	Y8	Z8	X9	Y9	Z9	X10	Y10	Z10	X11	Y11	Z11	X12	Y12	Z12	X13	Y13	Z13	X14	Y14	Z14	X15	Y15	Z15	X16	Y16	Z16	X17	Y17	Z17	X18	Y18	Z18	X19	Y19	Z19	X20	Y20	Z20	X21	Y21	Z21	X22	Y22	Z22	X23	Y23	Z23	X24	Y24	Z24	X25	Y25	Z25	X26	Y26	Z26	X27	Y27	Z27	X28	Y28	Z28	X29	Y29	Z29	X30	Y30	Z30	X31	Y31	Z31	X32	Y32	Z32	X33	Y33	Z33	X34	Y34	Z34	X35	Y35	Z35	X36	Y36	Z36	X37	Y37	Z37	X38	Y38	Z38	X39	Y39	Z39	X40	Y40	Z40	X41	Y41	Z41	X42	Y42	Z42	X43	Y43	Z43	X44	Y44	Z44	X45	Y45	Z45	X46	Y46	Z46	X47	Y47	Z47	X48	Y48	Z48	X49	Y49	Z49	X50	Y50	Z50	X51	Y51	Z51	X52	Y52	Z52	X53	Y53	Z53	X54	Y54	Z54	X55	Y55	Z55	X56	Y56	Z56	X57	Y57	Z57	X58	Y58	Z58

298	1.49	-536.32	1608.5	-80.314	-500.99	1403.6	-181.13	-783.72	90.65	115.54	-616.73	1080.6	-294.54	-457.21	653.86	116.17	-697.52	261.29	41.079	-607.09	798.51	-297.28	-714.1	50.926	83.248	-633.11	318.63	118.96	-756.02	65.633	42.97	-591	1473.2	-15.063	-540.83	768.76	-279.36	-892.82	213.65	29.286	-463.84	789.23	260.15	-493.09	1023	-161.72	-562.66	919.13	272.28	-506.34	501.81	134.56	-534.06	803.48	237.65	-459.21	518.3	-133.09	-463.39	578.98	-142.59	-481.13	669.96	-164.8	-606.09	1075.8	276.7	-643.26	1078.3	199.49	-692.14	1032.3	-59.631	-422.53	686.93	-123.69	-701.54	1030.9	8.7891	-422.38	302.93	-116.92	-523.93	977.89	144.84	-542.83	33.765	-54.548	-458.83	68.358	-18.808	-357.35	1607.5	-44.098	-679.76	1217.6	-15.391	-362.24	24.25	-122.11	-278.33	44.278	-58.984	-540.83	1605.6	56.266	-555.07	1206.2	-256.74	-326.72	30.968	-40.907	-508.01	546.08	137.8	-831.59	205.99	91.381	-622.64	1362.5	139.8	-523.04	478.04	7.2225	-410.62	394.81	-46.217	-431.14	210.83	-46.8	-499.35	759.47	-183.65	-487.25	499.71	-7.6382	-359.81	1607.3	30.713	-546.82	369.9	49.153	-423.24	302.83	-45.054	-529.87	1233.5	230.64	-545.83	731.85	160.82	-523.24	639	152.28	-625.65	312.54	44.394	-477.7	59.499	-101.95	-462.43	838.54	213.5	-544.05	812.62	-242.61	-489.77	1411	142.86	-664.22	1080.4	-224.02	-805.58	187.25	15.257
299	1.495	-531.78	1609.2	-80.317	-496.3	1404.3	-181.33	-771.48	92.011	116.01	-610.01	1080.5	-295.04	-449.35	655.99	116.29	-686.99	262.51	41.208	-598.08	798.53	-297.87	-701.35	53.068	83.696	-622.64	320.03	119.08	-743.57	67.315	43.421	-586.41	1473.8	-15.284	-531.54	769.43	-279.85	-882.35	213.29	29.741	-460.56	789.32	259.56	-488.42	1023.7	-162.07	-559.15	919.49	271.7	-496.97	503.6	134.54	-530.81	803.69	237.16	-456.5	518.21	-133.21	-460.07	579.06	-142.65	-477.51	670.1	-164.93	-602.22	1076.3	276.04	-639.19	1078.8	198.85	-687.35	1032.8	-59.825	-418.94	686.92	-123.68	-696.65	1031.5	8.6207	-421.02	302.61	-117.01	-518.99	978.24	144.87	-542.85	33.765	-54.524	-458.8	68.331	-18.712	-352.79	1608.3	-44.087	-675.03	1218.2	-15.722	-362.19	24.217	-122.15	-278.1	43.857	-59.08	-536.29	1606.1	56.259	-549.26	1206.5	-257.1	-326.64	30.813	-40.881	-499.13	547.74	137.71	-820.75	206.5	91.774	-618.33	1363	139.38	-513.69	479.87	7.2239	-408.62	394.48	-46.416	-430.29	210.6	-46.817	-495.44	759.66	-183.83	-485.81	499.94	-7.9505	-355.26	1608	30.729	-536.43	371.5	49.011	-421.8	302.55	-45.149	-525.94	1234	230.42	-539.77	732.99	160.86	-515.45	640.56	152.24	-615.31	314.01	44.441	-477.66	59.476	-101.89	-459.08	838.65	212.93	-535.21	813.23	-243.12	-485.45	1411.6	142.86	-657.57	1079.9	-224.59	-794.75	187.95	15.523
300	1.5	-527.25	1609.9	-80.301	-491.62	1405	-181.5	-758.93	93.155	116.49	-603.28	1080.4	-295.52	-441.56	658.17	116.4	-676.29	263.55	41.356	-589.02	798.61	-298.45	-688.23	55.083	84.212	-612.13	321.37	119.21	-730.73	68.803	43.907	-581.81	1474.4	-15.495	-522.21	770.17	-280.33	-871.63	212.54	30.1	-457.29	789.44	259	-483.76	1024.4	-162.41	-555.63	919.87	271.14	-487.64	505.46	134.48	-527.58	803.92	236.67	-453.86	518.11	-133.32	-456.74	579.17	-142.68	-473.89	670.26	-165.02	-598.35	1076.7	275.39	-635.13	1079.3	198.19	-682.59	1033.3	-59.983	-415.4	686.93	-123.6	-691.78	1032	8.4901	-419.7	302.29	-117.1	-514.05	978.63	144.88	-542.86	33.765	-54.5	-458.77	68.313	-18.624	-348.25	1609.1	-44.044	-670.32	1218.8	-16.045	-362.15	24.185	-122.19	-277.89	43.462	-59.184	-531.77	1606.7	56.271	-543.45	1206.9	-257.43	-326.56	30.657	-40.867	-490.3	549.47	137.58	-809.71	206.71	92.101	-614.03	1363.6	138.99	-504.42	481.69	7.1901	-406.66	394.17	-46.623	-429.47	210.38	-46.83	-491.54	759.87	-183.97	-484.24	500.12	-8.225	-350.73	1608.7	30.778	-525.97	373.08	48.882	-420.39	302.28	-45.246	-522.02	1234.5	230.21	-533.88	734.14	160.91	-507.7	642.17	152.17	-604.85	315.39	44.494	-477.62	59.453	-101.82	-455.75	838.77	212.37	-526.33	813.9	-243.6	-481.15	1412.2	142.86	-650.9	1079.4	-225.11	-783.67	188.36	15.751
301	1.505	-522.74	1610.6	-80.268	-486.94	1405.7	-181.65	-746.09	94.082	116.98	-596.54	1080.4	-295.98	-433.83	660.39	116.49	-665.43	264.41	41.523	-579.92	798.76	-299	-674.76	56.961	84.789	-601.58	322.66	119.33	-717.52	70.096	44.426	-577.23	1475.1	-15.695	-512.82	770.98	-280.8	-860.67	211.41	30.37	-454.03	789.59	258.45	-479.14	1025.2	-162.73	-552.11	920.28	270.58	-478.34	507.36	134.41	-524.34	804.18	236.2	-451.3	518.01	-133.43	-453.45	579.29	-142.69	-470.29	670.43	-165.1	-594.48	1077.2	274.74	-631.07	1079.8	197.51	-677.84	1033.9	-60.105	-411.9	686.96	-123.47	-686.94	1032.6	8.3969	-418.43	301.98	-117.19	-509.12	979.06	144.86	-542.88	33.765	-54.476	-458.73	68.304	-18.546	-343.74	1609.9	-43.969	-665.63	1219.4	-16.363	-362.11	24.152	-122.23	-277.69	43.091	-59.295	-527.28	1607.3	56.301	-537.64	1207.3	-257.72	-326.48	30.5	-40.863	-481.51	551.26	137.42	-798.47	206.63	92.368	-609.73	1364.2	138.61	-495.23	483.5	7.127	-404.76	393.87	-46.835	-428.69	210.16	-46.837	-487.65	760.09	-184.08	-482.51	500.24	-8.4561	-346.24	1609.5	30.856	-515.46	374.65	48.773	-419.04	302.01	-45.343	-518.09	1235.1	229.99	-528.14	735.28	160.99	-499.98	643.83	152.1	-594.29	316.66	44.555	-477.58	59.429	-101.76	-452.42	838.92	211.81	-517.4	814.63	-244.07	-476.86	1412.8	142.87	-644.2	1079	-225.6	-772.32	188.47	15.946
302	1.51	-518.24	1611.3	-80.22	-482.27	1406.5	-181.77	-732.97	94.796	117.47	-589.79	1080.4	-296.42	-426.18	662.66	116.56	-654.4	265.08	41.708	-570.77	798.98	-299.53	-660.96	58.692	85.419	-590.98	323.89	119.46	-703.96	71.193	44.975	-572.65	1475.8	-15.885	-503.4	771.87	-281.26	-849.47	209.91	30.56	-450.78	789.77	257.92	-474.53	1025.9	-163.04	-548.58	920.72	270.03	-469.09	509.31	134.33	-521.11	804.46	235.74	-448.83	517.91	-133.54	-450.23	579.42	-142.69	-466.75	670.62	-165.16	-590.62	1077.7	274.09	-627	1080.4	196.83	-673.12	1034.4	-60.19	-408.44	686.97	-123.32	-682.11	1033.2	8.34	-417.2	301.66	-117.28	-504.19	979.54	144.81	-542.9	33.766	-54.454	-458.69	68.302	-18.48	-339.24	1610.7	-43.867	-660.94	1220	-16.677	-362.06	24.12	-122.28	-277.5	42.742	-59.414	-522.82	1607.9	56.345	-531.81	1207.7	-257.99	-326.41	30.345	-40.867	-472.77	553.09	137.23	-787.02	206.25	92.582	-605.44	1364.8	138.25	-486.12	485.3	7.041	-402.91	393.58	-47.046	-427.95	209.94	-46.836	-483.79	760.33	-184.17	-480.58	500.29	-8.6397	-341.77	1610.2	30.962	-504.91	376.21	48.69	-417.74	301.76	-45.434	-514.16	1235.6	229.78	-522.52	736.42	161.07	-492.28	645.53	152.01	-583.63	317.83	44.626	-477.55	59.404	-101.69	-449.1	839.08	211.27	-508.45	815.41	-244.5	-472.58	1413.4	142.89	-637.47	1078.5	-226.05	-760.72	188.3	16.11
303	1.515	-513.76	1612.1	-80.157	-477.59	1407.3	-181.88	-719.58	95.298	117.96	-583.04	1080.5	-296.83	-418.59	664.95	116.62	-643.23	265.58	41.909	-561.59	799.26	-300.04	-646.85	60.272	86.09	-580.34	325.05	119.59	-690.07	72.096	45.551	-568.08	1476.4	-16.063	-493.94	772.83	-281.72	-838.03	208.05	30.68	-447.53	789.98	257.41	-469.95	1026.5	-163.33	-545.05	921.19	269.49	-459.88	511.29	134.23	-517.87	804.77	235.29	-446.46	517.8	-133.65	-447.1	579.55	-142.69	-463.27	670.8	-165.2	-586.75	1078.3	273.44	-622.95	1081	196.15	-668.41	1034.9	-60.241	-405.04	686.96	-123.16	-677.3	1033.8	8.3178	-416	301.35	-117.37	-499.24	980.08	144.73	-542.92	33.769	-54.432	-458.64	68.307	-18.424	-334.76	1611.5	-43.739	-656.27	1220.6	-16.988	-362.03	24.088	-122.32	-277.32	42.414	-59.538	-518.38	1608.4	56.404	-525.98	1208.1	-258.22	-326.35	30.193	-40.879	-464.08	554.96	137.03	-775.37	205.58	92.747	-601.15	1365.4	137.91	-477.08	487.07	6.9384	-401.13	393.31	-47.253	-427.25	209.73	-46.825	-479.96	760.58	-184.23	-478.45	500.27	-8.7737	-337.31	1611	31.093	-494.35	377.77	48.636	-416.49	301.51	-45.519	-510.22	1236.2	229.57	-517	737.55	161.17	-484.6	647.27	151.91	-572.86	318.89	44.709	-477.52	59.378	-101.63	-445.79	839.27	210.73	-499.46	816.26	-244.92	-468.3	1414.1	142.9	-630.72	1078.1	-226.46	-748.86	187.85	16.249
304	1.52	-509.29	1612.8	-80.082	-472.91	1408	-181.95	-705.93	95.593	118.46	-576.29	1080.6	-297.24	-411.08	667.26	116.66	-631.9	265.89	42.12	-552.38	799.61	-300.51	-632.46	61.696	86.792	-569.66	326.15	119.71	-675.87	72.81	46.15	-563.52	1477.1	-16.23	-484.46	773.87	-282.16	-826.33	205.86	30.74	-444.29	790.22	256.92	-465.38	1027.2	-163.6	-541.52	921.69	268.96	-450.72	513.3	134.13	-514.62	805.11	234.87	-444.17	517.69	-133.74	-444.11	579.65	-142.71	-459.88	670.98	-165.24	-582.89	1078.8	272.81	-618.89	1081.7	195.47	-663.72	1035.4	-60.26	-401.69	686.9	-123.02	-672.51	1034.4	8.3279	-414.84	301.04	-117.44	-494.29	980.68	144.61	-542.94	33.775	-54.41	-458.59	68.316	-18.378	-330.3	1612.3	-43.587	-651.6	1221.2	-17.295	-361.99	24.056	-122.36	-277.15	42.105	-59.666	-513.96	1609	56.474	-520.13	1208.6	-258.43	-326.28	30.045	-40.896	-455.44	556.87	136.81	-763.52	204.63	92.871	-596.85	1366	137.59	-468.1	488.83	6.8253	-399.4	393.06	-47.451	-426.58	209.52	-46.805	-476.16	760.82	-184.27	-476.1	500.17	-8.8586	-332.88	1611.7	31.246	-483.78	379.33	48.614	-415.29	301.26	-45.595	-506.27	1236.8	229.35	-511.53	738.68	161.27	-476.93	649.03	151.79	-562.01	319.85	44.801	-477.5	59.35	-101.56	-442.48	839.48	210.2	-490.45	817.17	-245.3	-464.03	1414.8	142.93	-623.95	1077.7	-226.85	-736.75	187.13	16.368
305	1.525	-504.83	1613.5	-79.995	-468.23	1408.8	-182.01	-692.04	95.687	118.95	-569.52	1080.8	-297.63	-403.63	669.6	116.67	-620.43	266.03	42.337	-543.13	800.02	-300.95	-617.79	62.963	87.513	-558.94	327.16	119.83	-661.38	73.34	46.767	-558.98	1477.7	-16.383	-474.94	774.99	-282.59	-814.38	203.33	30.75	-441.05	790.49	256.45	-460.83	1027.9	-163.85	-537.98	922.2	268.45	-441.63	515.33	134.02	-511.37	805.48	234.45	-441.98	517.58	-133.84	-441.25	579.73	-142.74	-456.58	671.14	-165.28	-579.03	1079.4	272.18	-614.84	1082.4	194.78	-659.05	1035.9	-60.248	-398.4	686.79	-122.9	-667.74	1035.1	8.367	-413.71	300.74	-117.51	-489.32	981.34	144.46	-542.96	33.783	-54.39	-458.53	68.329	-18.34	-325.84	1613.1	-43.414	-646.94	1221.8	-17.598	-361.95	24.025	-122.4	-276.99	41.812	-59.796	-509.56	1609.6	56.556	-514.26	1209.1	-258.61	-326.23	29.902	-40.919	-446.87	558.8	136.58	-751.46	203.41	92.961	-592.56	1366.6	137.29	-459.19	490.57	6.7075	-397.73	392.81	-47.636	-425.94	209.31	-46.774	-472.41	761.06	-184.29	-473.55	500.01	-8.8969	-328.46	1612.5	31.42	-473.22	380.89	48.626	-414.14	301.02	-45.66	-502.3	1237.4	229.14	-506.07	739.82	161.38	-469.27	650.81	151.67	-551.07	320.7	44.904	-477.48	59.321	-101.49	-439.17	839.7	209.7	-481.41	818.13	-245.66	-459.77	1415.4	142.95	-617.17	1077.4	-227.22	-724.39	186.15	16.469
